<?xml version="1.0" standalone="no"?>
<!DOCTYPE svg PUBLIC "-//W3C//DTD SVG 20010904//EN"
 "http://www.w3.org/TR/2001/REC-SVG-20010904/DTD/svg10.dtd">
<svg version="1.0" xmlns="http://www.w3.org/2000/svg"
 width="2000.000000pt" height="452.000000pt" viewBox="0 0 2000.000000 452.000000"
 preserveAspectRatio="xMidYMid meet">

<g transform="translate(0.000000,452.000000) scale(0.100000,-0.100000)"
fill="#000000" stroke="none">
<path d="M1070 3827 l0 -64 73 -13 c166 -29 215 -58 238 -137 20 -68 21 -2519
1 -2574 -25 -71 -72 -97 -227 -129 -80 -16 -80 -16 -83 -50 -2 -18 -1 -49 3
-67 l6 -33 1267 0 c697 0 1272 4 1278 8 8 5 21 152 38 442 14 239 29 479 32
533 l7 97 -74 0 -74 0 -44 -108 c-76 -187 -207 -444 -272 -536 -68 -95 -136
-157 -207 -187 -69 -30 -164 -40 -367 -41 -300 0 -383 29 -422 145 -15 46 -17
117 -21 614 l-3 561 22 7 c28 9 319 -3 384 -16 99 -19 124 -42 186 -166 31
-62 71 -160 90 -218 l34 -105 68 0 67 0 0 590 0 590 -67 0 -68 0 -28 -88 c-40
-120 -115 -270 -157 -312 -59 -59 -116 -72 -337 -78 l-193 -4 0 580 0 581 38
10 c133 36 521 48 647 21 176 -37 277 -150 459 -513 l91 -182 68 -1 67 0 0 30
c0 17 -9 200 -20 406 -11 206 -20 396 -20 423 l0 47 -1240 0 -1240 0 0 -63z"/>
<path d="M16830 3653 c-60 -150 -149 -283 -270 -403 -106 -107 -189 -167 -338
-242 -102 -52 -116 -62 -115 -83 1 -14 1 -38 2 -55 l1 -30 140 0 139 0 3 -837
c4 -927 1 -880 70 -1023 41 -85 106 -148 198 -194 105 -51 198 -69 355 -69
151 1 298 27 410 74 89 37 208 106 263 154 41 35 42 38 42 97 l0 61 -42 -6
c-24 -3 -81 -11 -126 -17 -46 -7 -130 -10 -185 -8 -116 5 -169 25 -210 80 -53
72 -52 45 -55 896 l-3 792 271 0 c148 0 270 2 270 4 0 6 51 230 56 249 5 16
-14 17 -295 17 l-301 0 0 300 0 300 -128 0 -128 0 -24 -57z"/>
<path d="M10114 3166 c-153 -35 -335 -139 -472 -271 -44 -41 -83 -75 -87 -75
-4 0 -5 70 -4 156 4 156 4 156 -21 176 -21 17 -34 19 -80 14 -30 -4 -228 -27
-440 -51 -502 -58 -450 -47 -450 -100 0 -42 2 -45 58 -84 178 -124 192 -136
215 -181 l22 -45 3 -793 c2 -519 -1 -813 -8 -849 -16 -89 -41 -108 -197 -153
l-83 -23 0 -63 0 -64 648 3 647 2 3 62 3 61 -48 10 c-26 6 -76 16 -110 22 -84
17 -116 38 -131 88 -9 30 -12 243 -12 837 l0 797 22 18 c48 40 140 82 192 87
75 8 117 -14 160 -86 79 -128 189 -188 332 -179 92 6 165 40 228 108 73 77 91
126 91 240 0 85 -3 101 -29 153 -79 155 -256 227 -452 183z"/>
<path d="M7221 3159 c-371 -41 -697 -247 -880 -556 -127 -214 -185 -502 -161
-797 29 -364 126 -604 324 -801 191 -189 488 -295 830 -296 205 0 358 32 543
112 113 50 277 156 361 233 l62 58 0 75 c0 56 -3 74 -12 70 -253 -110 -389
-145 -594 -154 -537 -22 -769 217 -810 835 l-7 102 747 0 746 0 0 73 c0 39 -7
119 -15 177 -73 510 -326 791 -775 859 -101 16 -267 20 -359 10z m239 -197
c123 -62 174 -210 187 -544 l6 -168 -59 0 c-32 -1 -205 -9 -384 -19 -179 -10
-327 -17 -329 -15 -7 7 18 242 35 323 33 161 78 261 155 345 80 88 154 119
269 111 45 -3 82 -13 120 -33z"/>
<path d="M11182 3115 c-243 -28 -445 -55 -449 -58 -3 -4 -7 -25 -8 -46 -2 -40
-2 -40 94 -103 53 -35 114 -79 135 -98 75 -67 71 -15 74 -883 2 -469 -1 -807
-7 -849 -14 -105 -38 -124 -213 -173 l-58 -16 0 -58 c0 -52 2 -59 23 -65 12
-3 292 -5 622 -3 l600 2 3 62 3 62 -41 10 c-22 6 -59 16 -82 22 -65 17 -96 36
-115 72 -17 30 -18 91 -21 864 l-3 832 38 10 c108 29 238 45 368 45 136 1 141
0 192 -28 31 -17 63 -45 79 -69 54 -82 54 -82 54 -871 0 -401 -3 -741 -7 -755
-13 -56 -44 -76 -163 -106 l-85 -21 -3 -62 -3 -62 631 0 631 0 -3 62 -3 61
-95 27 c-112 31 -134 42 -158 77 -16 25 -17 90 -23 873 -5 778 -7 850 -23 910
-55 196 -172 316 -356 366 -92 25 -324 26 -440 1 -177 -38 -373 -123 -547
-237 -51 -33 -95 -60 -98 -60 -4 0 -6 60 -5 133 1 72 1 139 1 148 -1 18 -42
39 -74 38 -12 -1 -221 -25 -465 -54z"/>
<path d="M14675 3163 c-93 -7 -245 -37 -329 -64 -182 -60 -327 -148 -457 -278
-126 -127 -197 -241 -255 -413 -57 -166 -69 -249 -69 -473 0 -172 3 -216 23
-310 60 -284 198 -510 406 -667 236 -177 558 -263 894 -236 549 43 939 356
1067 857 44 170 55 396 30 581 -20 152 -36 211 -98 354 -167 391 -568 636
-1062 649 -61 2 -128 2 -150 0z m237 -193 c71 -22 143 -77 182 -139 36 -57 76
-165 96 -259 38 -179 45 -286 45 -657 -1 -317 -3 -376 -22 -495 -60 -380 -181
-530 -426 -530 -274 0 -394 149 -452 560 -26 180 -32 753 -11 937 41 356 135
534 309 589 66 20 204 17 279 -6z"/>
<path d="M18900 3163 c-266 -20 -532 -138 -719 -317 -241 -233 -360 -531 -361
-906 0 -378 102 -690 296 -899 157 -170 366 -272 649 -316 157 -25 402 -17
536 18 228 59 427 166 592 316 l57 53 0 75 c0 56 -3 74 -12 70 -7 -3 -56 -24
-109 -46 -199 -84 -387 -118 -603 -108 -209 9 -339 55 -449 156 -149 138 -217
330 -243 689 l-7 92 737 0 736 0 0 133 c0 203 -35 355 -120 524 -125 251 -331
397 -630 448 -86 15 -267 24 -350 18z m188 -188 c24 -10 61 -39 87 -67 75 -83
107 -217 121 -510 6 -113 4 -138 -7 -142 -8 -3 -160 -12 -339 -21 -179 -8
-347 -18 -374 -21 l-49 -6 6 103 c20 318 114 553 254 640 81 50 209 60 301 24z"/>
<path d="M3732 3048 l3 -61 60 -20 c162 -54 175 -75 440 -732 87 -214 211
-523 277 -685 66 -162 163 -403 215 -535 53 -132 101 -243 107 -247 13 -8 360
-8 374 1 5 3 33 67 62 141 29 74 149 383 267 685 118 303 255 654 304 780 131
336 159 402 200 465 44 69 79 95 167 126 l67 23 3 61 3 60 -421 0 -420 0 0
-59 0 -60 58 -16 c31 -9 73 -21 92 -27 129 -37 146 -157 60 -408 -210 -606
-369 -1045 -380 -1045 -13 0 -23 26 -258 675 -186 512 -186 511 -186 600 -1
99 18 134 87 165 29 13 75 29 102 36 66 16 75 24 75 69 0 76 64 70 -687 70
l-674 0 3 -62z"/>
</g>
</svg>
